Coordinates
version=1
nRows=15
nColumns=42
inDegrees=yes

Units are S.I. units (second, meters, Newtons, ...)
If the header above contains a line with 'inDegrees', this indicates whether rotational values are in degrees (yes) or radians (no).

endheader
time	pelvis_tilt	pelvis_list	pelvis_rotation	pelvis_tx	pelvis_ty	pelvis_tz	hip_flexion_r	hip_adduction_r	hip_rotation_r	knee_angle_r	knee_adduction_r	knee_angle_r_beta	ankle_angle_r	subtalar_angle_r	mtp_angle_r	hip_flexion_l	hip_adduction_l	hip_rotation_l	knee_angle_l	knee_adduction_l	knee_angle_l_beta	ankle_angle_l	subtalar_angle_l	mtp_angle_l	lumbar_extension	lumbar_bending	lumbar_rotation	arm_flex_r	arm_add_r	arm_rot_r	elbow_flex_r	pro_sup_r	wrist_flex_r	wrist_dev_r	arm_flex_l	arm_add_l	arm_rot_l	elbow_flex_l	pro_sup_l	wrist_flex_l	wrist_dev_l
      0.61000000	      8.13315318	     -3.40039648	     -9.99420992	     -0.12205233	      0.80385678	     -0.28466362	    -20.95929303	     -3.38117318	    -32.82964649	     26.18700028	     -5.09131153	      0.45704938	     26.00401903	     37.60971198	     -7.57231017	     26.62795645	     -8.35712013	    -33.09428801	     24.58743643	     -4.24896717	      0.42913172	     18.74699339	     17.80372630	     -7.57231017	    -21.39038000	      0.22434172	     15.19920337	      9.59678625	    -25.47655814	      5.84656178	     44.18371884	     90.00000001	      0.00000000	      0.00000000	    -13.70815409	     -6.51526511	    -52.42072317	     26.84886492	     90.00000001	      0.00000000	      0.00000000
      0.62000000	      8.33290303	     -3.18221429	    -10.36401936	     -0.10533114	      0.80278504	     -0.28447392	    -21.65658606	     -4.29599345	    -31.86713180	     27.29504890	     -5.26351975	      0.47638847	     23.89926482	     37.46064280	     -7.56892507	     26.47567476	     -7.85861550	    -32.50014630	     26.11223518	     -4.87579214	      0.45574448	     18.03169218	     16.60900183	     -7.56892507	    -21.40574332	     -0.20690893	     15.15693732	      9.60121034	    -25.35075793	      5.73734360	     44.28544102	     90.00000001	      0.00000000	      0.00000000	    -14.23995960	     -6.51028269	    -53.28316351	     26.37010571	     90.00000001	      0.00000000	      0.00000000
      0.63000000	      8.47265924	     -2.89903818	    -10.69432834	     -0.08851358	      0.80181210	     -0.28448556	    -22.00907157	     -5.28904388	    -30.87800438	     28.79686183	     -5.54846108	      0.50260005	     21.80531044	     37.17905313	     -7.56750487	     26.39967491	     -7.26097448	    -32.00690207	     27.82591652	     -5.66108298	      0.48565386	     17.26911222	     15.15902089	     -7.56750487	    -21.34088452	     -0.69307712	     15.01440586	      9.53804066	    -25.21864838	      5.66727928	     44.37990984	     90.00000001	      0.00000000	      0.00000000	    -14.73737651	     -6.57104957	    -53.76538853	     25.89490296	     90.00000001	      0.00000000	      0.00000000
      0.64000000	      8.58874217	     -2.59906211	    -10.90724980	     -0.07165136	      0.80107106	     -0.28468130	    -22.10899714	     -6.27700016	    -30.02153321	     30.62310400	     -5.93650907	      0.53447399	     18.94293370	     36.65682323	     -7.56540535	     26.23878112	     -6.51746185	    -30.65405878	     29.52838163	     -6.11474056	      0.51536748	     16.02040359	     12.53427112	     -7.56540535	    -21.26044974	     -1.15264989	     14.83386094	      9.28598117	    -25.08667383	      5.53130426	     44.45382030	     90.00000001	      0.00000000	      0.00000000	    -14.96404041	     -6.64463415	    -54.52520288	     25.25143934	     90.00000001	      0.00000000	      0.00000000
      0.65000000	      8.66124967	     -2.26021276	    -11.06256751	     -0.05480614	      0.80049480	     -0.28499459	    -21.82577524	     -7.26829724	    -29.06668534	     32.89643592	     -6.43279886	      0.57415112	     16.19732809	     35.89264383	     -7.56358392	     26.07580963	     -5.75108092	    -29.28549101	     31.27090383	     -6.42941816	      0.54578023	     14.95674115	      9.97110255	     -7.56358392	    -21.12931178	     -1.64147845	     14.52481720	      9.03102740	    -24.89214866	      5.41302222	     44.53399565	     90.00000001	      0.00000000	      0.00000000	    -15.19471961	     -6.69023756	    -55.26112659	     24.69895811	     90.00000001	      0.00000000	      0.00000000
      0.66000000	      8.73649327	     -1.86505032	    -11.12194886	     -0.03819535	      0.80030974	     -0.28546517	    -21.27863581	     -8.19629152	    -27.78930550	     35.45973140	     -6.93083559	      0.61888906	     13.65596811	     34.49296741	     -7.55760398	     25.66549295	     -4.68958966	    -26.24118797	     32.77066239	     -5.91399233	      0.57195596	     13.17783451	      4.36729993	     -7.55760398	    -21.04971901	     -2.17146431	     14.15131101	      8.69969459	    -24.60844768	      5.03658050	     44.60096758	     90.00000001	      0.00000000	      0.00000000	    -14.95085797	     -6.84277083	    -57.55820667	     23.85662649	     90.00000001	      0.00000000	      0.00000000
      0.67000000	      8.81564114	     -1.49695808	    -11.15440668	     -0.02162268	      0.80025784	     -0.28604715	    -20.41124764	     -9.03106427	    -26.29901972	     38.44192230	     -7.49724626	      0.67093811	     10.52412463	     32.26099329	     -7.55282418	     25.37378185	     -3.90181248	    -24.84164696	     34.41700686	     -5.88048524	      0.60069009	     12.44195451	      2.12163818	     -7.55282418	    -20.97814653	     -2.64407712	     13.71159549	      8.39379906	    -24.28797760	      4.93243079	     44.65670530	     90.00000001	      0.00000000	      0.00000000	    -14.72894295	     -6.87098945	    -59.08049781	     23.45188365	     90.00000001	      0.00000000	      0.00000000
      0.68000000	      8.88717090	     -1.11516774	    -11.07321964	     -0.00535363	      0.80042129	     -0.28687919	    -19.17447457	     -9.76410234	    -24.59214736	     41.86296680	     -8.05213700	      0.73064661	      7.88407722	     29.28977610	     -7.54905336	     25.00064622	     -3.03318406	    -23.52526204	     35.87098895	     -5.82466076	      0.62606686	     12.11723614	      0.16630751	     -7.54905336	    -20.97789898	     -3.08533996	     13.22603705	      8.04227245	    -24.11356557	      4.88556542	     44.66606610	     90.00000001	      0.00000000	      0.00000000	    -14.39040758	     -6.86661136	    -60.05512373	     23.20819975	     90.00000001	      0.00000000	      0.00000000
      0.69000000	      8.95613938	     -0.69916509	    -10.97788022	      0.01076810	      0.80079511	     -0.28777982	    -17.63380844	    -10.45787528	    -22.74567418	     45.57112414	     -8.54068558	      0.79536616	      5.33591780	     25.56976471	     -7.54643928	     24.48218332	     -2.18082331	    -22.47953609	     37.10361466	     -5.64218211	      0.64758024	     12.13897616	     -1.31846288	     -7.54643928	    -20.99257995	     -3.53284486	     12.69599485	      7.64354521	    -23.96419979	      4.86344672	     44.65533041	     90.00000001	      0.00000000	      0.00000000	    -14.13364723	     -6.90385634	    -60.61566674	     23.07650202	     90.00000001	      0.00000000	      0.00000000
      0.70000000	      9.00196807	     -0.22382090	    -10.90532837	      0.02657714	      0.80137148	     -0.28865405	    -15.74401780	    -11.13461076	    -20.71779753	     49.50865970	     -8.90953419	      0.86408912	      3.53727429	     21.66593814	     -7.54461838	     23.83170278	     -1.30574674	    -21.81000485	     38.02397185	     -5.45976260	      0.66364350	     12.61873555	     -2.27372201	     -7.54461838	    -20.99389357	     -4.04478953	     12.23953935	      7.21287037	    -23.75255109	      4.87210615	     44.58826914	     90.00000001	      0.00000000	      0.00000000	    -13.72206016	     -6.97490706	    -60.88700343	     23.09372373	     90.00000001	      0.00000000	      0.00000000
      0.71000000	      8.98451978	      0.14552683	    -10.75747102	      0.04201217	      0.80232716	     -0.28967402	    -13.64774352	    -11.42078273	    -17.53058533	     53.45933213	     -8.40442275	      0.93304136	      2.09380061	     15.92916020	     -7.54175971	     23.04388214	     -0.47157447	    -21.22352083	     38.56097930	     -5.35568089	      0.67301605	     13.18709200	     -2.95025020	     -7.54175971	    -21.00644672	     -4.36733595	     11.72584058	      6.81542825	    -23.55469595	      4.80826782	     44.47168094	     90.00000001	      0.00000000	      0.00000000	    -13.08756778	     -6.94535647	    -61.13342574	     23.14389590	     90.00000001	      0.00000000	      0.00000000
      0.72000000	      8.93977695	      0.52806701	    -10.63185383	      0.05720981	      0.80349511	     -0.29063509	    -11.26018734	    -11.70831227	    -14.92092399	     57.31309584	     -8.06483574	      1.00030223	      1.03103020	     10.81301547	     -7.53888197	     22.13715478	      0.27696063	    -21.34262460	     38.79515475	     -5.44416729	      0.67710318	     14.15382219	     -2.64460537	     -7.53888197	    -21.01189868	     -4.69329324	     11.25444595	      6.43876583	    -23.30550294	      4.74102877	     44.29850016	     90.00000001	      0.00000000	      0.00000000	    -12.41663261	     -6.93218841	    -60.89473430	     23.33377642	     90.00000001	      0.00000000	      0.00000000
      0.73000000	      8.85809534	      0.85063463	    -10.53265560	      0.07216934	      0.80494974	     -0.29154565	     -8.66717517	    -11.82547780	    -12.34111700	     60.92344623	     -7.58067145	      1.06331473	      0.38963104	      5.70231816	     -7.53625032	     21.09101412	      0.90666813	    -21.89967902	     38.70813829	     -5.65984354	      0.67558446	     15.33470325	     -1.67921216	     -7.53625032	    -21.00169740	     -4.92977463	     10.81997845	      6.07715792	    -23.04767601	      4.64627792	     44.05578123	     90.00000001	      0.00000000	      0.00000000	    -11.67531278	     -6.90237378	    -60.47118281	     23.60071830	     90.00000001	      0.00000000	      0.00000000
      0.74000000	      8.73882169	      1.08392730	    -10.43558633	      0.08694397	      0.80670054	     -0.29238847	     -5.93584460	    -11.74842373	    -10.07006436	     64.12209569	     -7.15109200	      1.11914169	      0.12730273	      0.93393307	     -7.53393465	     19.91787405	      1.40633431	    -22.75605374	     38.32749666	     -5.97164248	      0.66894101	     16.61649090	     -0.21315524	     -7.53393465	    -20.97232552	     -5.04054680	     10.41225300	      5.75484428	    -22.76228961	      4.54215552	     43.76694603	     90.00000001	      0.00000000	      0.00000000	    -10.84750970	     -6.83532189	    -59.82221206	     23.96114275	     90.00000001	      0.00000000	      0.00000000
      0.75000000	      8.61077038	      1.20040864	    -10.36475599	      0.10149676	      0.80876413	     -0.29312903	     -3.12194369	    -11.45910743	     -8.16431050	     66.83761103	     -6.83678510	      1.16653638	      0.12145741	     -3.25029639	     -7.53158440	     18.61618616	      1.73380814	    -23.77721247	     37.72082405	     -6.26607012	      0.65835258	     17.91047287	      1.67691627	     -7.53158440	    -20.96678880	     -5.01624490	     10.04193825	      5.46104370	    -22.49301988	      4.40260814	     43.40129978	     90.00000001	      0.00000000	      0.00000000	     -9.99753692	     -6.73791591	    -58.88772822	     24.37666231	     90.00000001	      0.00000000	      0.00000000
